<?xml version="1.0" encoding="utf-8"?>
<!-- Generator: Adobe Illustrator 25.2.1, SVG Export Plug-In . SVG Version: 6.00 Build 0)  -->
<svg version="1.1" id="Layer_1" xmlns="http://www.w3.org/2000/svg" xmlns:xlink="http://www.w3.org/1999/xlink" x="0px" y="0px"
	 viewBox="0 0 349.2 62" style="enable-background:new 0 0 349.2 62;" xml:space="preserve">
<style type="text/css">
	.st0{fill:#0497C5;stroke:#0497C5;stroke-width:3;stroke-miterlimit:10;}
	.st1{fill:none;stroke:#000000;stroke-width:2;stroke-linecap:round;stroke-miterlimit:10;}
	.st2{stroke:#000000;stroke-width:2;stroke-miterlimit:10;}
	.st3{fill:none;stroke:#000000;stroke-width:2;stroke-miterlimit:10;}
	.st4{fill:none;stroke:#000000;stroke-width:3;stroke-linecap:round;stroke-miterlimit:10;}
	.st5{fill:none;stroke:#000000;stroke-miterlimit:10;}
	.st6{fill:#FFFFFF;stroke:#000000;stroke-width:2;stroke-miterlimit:10;}
	.st7{fill:#FFFFFF;stroke:#FFFFFF;stroke-width:2;stroke-miterlimit:10;}
	.st8{fill:#FFFFFF;}
</style>
<g>
	<g>
		<line class="st7" x1="2.8" y1="56.6" x2="26.8" y2="56.6"/>
		<line class="st7" x1="2.8" y1="5.4" x2="26.8" y2="5.4"/>
		<rect x="10.1" y="5.4" class="st8" width="9.4" height="51.3"/>
	</g>
	<g>
		<line class="st7" x1="241" y1="56.6" x2="265" y2="56.6"/>
		<line class="st7" x1="241" y1="5.4" x2="265" y2="5.4"/>
		<rect x="248.3" y="5.4" class="st8" width="9.4" height="51.3"/>
	</g>
	<g>
		<line class="st7" x1="322.4" y1="56.6" x2="346.4" y2="56.6"/>
		<line class="st7" x1="322.4" y1="5.4" x2="346.4" y2="5.4"/>
		<rect x="329.7" y="5.4" class="st8" width="9.4" height="51.3"/>
	</g>
	<g>
		<line class="st7" x1="200.8" y1="56.6" x2="224.8" y2="56.6"/>
		<path class="st8" d="M234.1,5.3v23.2h-1.2C232,18.4,225.3,10,216.6,7.8v48.8h-9.4V7.8c-8.8,2.2-15.4,10.5-16.3,20.8h-1.2V5.3
			H234.1z"/>
	</g>
	<g>
		<path class="st8" d="M77,32.8v24.4H59.1v0h-24v-2h6.7V6.3h-7.2v-2h24v2h-7.4v48.8h0c6.6,0,13.1-2.4,17.7-7.1
			c3.9-4,6.3-9.1,6.5-14.8l0-0.5H77z"/>
	</g>
	<g>
		<path class="st8" d="M139.8,32.8v24.4h-12.9v0h-24v-2h6.7V6.3h-7.2v-2h24v2H119v48.8h0c6.6,0,10.1-2.3,13.6-6.4
			c3.6-4.2,5.4-9.8,5.6-15.5l0-0.5H139.8z"/>
	</g>
	<g>
		<polygon class="st8" points="310.5,55.6 310.5,55.8 310.4,55.6 		"/>
	</g>
	<g>
		<polygon class="st8" points="310.5,55.6 310.5,55.8 310.4,55.6 		"/>
	</g>
	<g>
		<polygon class="st8" points="314.8,4.3 314.8,6.3 310.5,6.3 310.5,55.6 310.4,55.6 310.5,55.8 310.5,55.6 314.8,55.6 314.8,57.6 
			300,57.6 300,55.6 302.1,55.6 277.3,10 277.3,55.6 281.5,55.6 281.5,57.6 271,57.6 271,55.6 275.3,55.6 275.3,6.3 270.6,6.3 
			270.6,4.3 289.8,4.3 289.8,6.3 283.6,6.3 308.5,52.1 308.5,6.3 304.3,6.3 304.3,4.3 		"/>
	</g>
	<g>
		<path class="st8" d="M181,55.6l-2.7-21h4v-2h-4.3l-3.3-26.2h4.4v-2h-24.3v2h5.4l-3.8,26.2h-7.2v2h6.9l-3,21h-5.4v2h12.9v-2h-5.5
			l3.1-21h12.1l2.7,21h-3v2h14.5v-2H181z M158.5,32.6l3.8-26.2h4.5l3.3,26.2H158.5z"/>
	</g>
	<g>
		<polygon class="st8" points="275.3,6.3 275.3,6.4 275.2,6.3 		"/>
	</g>
</g>
</svg>
